<svg xmlns="http://www.w3.org/2000/svg" viewBox="0 0 320 320" role="img" aria-labelledby="title desc">
  <title id="title">Zampier Soccer</title>
  <desc id="desc">Escudo preto e verde com estrelas, faixa Zampier e bola de futebol.</desc>
  <defs>
    <linearGradient id="shield" x1="50" y1="40" x2="270" y2="285" gradientUnits="userSpaceOnUse">
      <stop offset="0" stop-color="#202020"/>
      <stop offset=".48" stop-color="#090909"/>
      <stop offset="1" stop-color="#242424"/>
    </linearGradient>
    <linearGradient id="green" x1="96" y1="132" x2="224" y2="260" gradientUnits="userSpaceOnUse">
      <stop offset="0" stop-color="#2cff55"/>
      <stop offset=".52" stop-color="#148f34"/>
      <stop offset="1" stop-color="#052c17"/>
    </linearGradient>
    <filter id="shadow" x="-20%" y="-20%" width="140%" height="140%">
      <feDropShadow dx="0" dy="6" stdDeviation="5" flood-color="#000" flood-opacity=".75"/>
    </filter>
  </defs>

  <rect width="320" height="320" fill="#050505"/>

  <g filter="url(#shadow)">
    <path d="M160 38 286 75l-13 129c-4 38-61 73-113 91-52-18-109-53-113-91L34 75 160 38Z" fill="url(#shield)" stroke="#d9d9d9" stroke-width="5"/>
    <path d="M160 65 252 91l-10 105c-3 26-43 51-82 66-39-15-79-40-82-66L68 91l92-26Z" fill="#090909" stroke="#4f4f4f" stroke-width="3"/>
    <path d="M93 126c26 9 46 26 58 51 14 30 39 50 73 58-15 12-38 23-64 33-35-13-68-34-70-74l-6-63 9-5Z" fill="url(#green)"/>
    <path d="M226 127c-20 8-38 24-50 48 3-26 20-50 46-64l4 16Z" fill="#25db49"/>

    <path d="M28 95c80-20 184-20 264 0l-10 70c-78-22-166-22-244 0L28 95Z" fill="#111" stroke="#f1f1f1" stroke-width="5"/>
    <path d="M47 108c70-14 156-14 226 0l-5 33c-68-13-148-13-216 0l-5-33Z" fill="#1a1a1a"/>
    <text x="160" y="137" text-anchor="middle" font-family="Arial Black, Impact, sans-serif" font-size="50" font-weight="900" fill="#f4f4f4" letter-spacing="1">ZAMPIER</text>
    <text x="160" y="170" text-anchor="middle" font-family="Arial Black, Impact, sans-serif" font-size="22" font-weight="900" fill="#ffd83b" letter-spacing="3">SOCCER</text>

    <g fill="#ffd83b" stroke="#fff2a0" stroke-width="1">
      <path d="m160 21 5 12 13 1-10 8 3 13-11-7-11 7 3-13-10-8 13-1z"/>
      <path d="m117 30 5 12 13 1-10 8 3 13-11-7-11 7 3-13-10-8 13-1z"/>
      <path d="m203 30 5 12 13 1-10 8 3 13-11-7-11 7 3-13-10-8 13-1z"/>
    </g>

    <g transform="translate(160 219)">
      <circle r="52" fill="#f7f7f7" stroke="#101010" stroke-width="5"/>
      <polygon points="0,-28 27,-9 16,23 -16,23 -27,-9" fill="#111"/>
      <path d="M0-28v-20M27-9l21-8M16 23l13 21M-16 23l-13 21M-27-9l-21-8" stroke="#111" stroke-width="7" stroke-linecap="round"/>
      <path d="M-49 1c13-3 24-2 35 5M49 1c-13-3-24-2-35 5M-31-39c5 10 11 17 20 23M31-39c-5 10-11 17-20 23" stroke="#111" stroke-width="5" fill="none"/>
    </g>
  </g>
</svg>
